<?xml version="1.0" encoding="utf-8"?>
<!-- Generator: Adobe Illustrator 24.1.2, SVG Export Plug-In . SVG Version: 6.00 Build 0)  -->
<svg version="1.1" id="Слой_1" xmlns="http://www.w3.org/2000/svg" xmlns:xlink="http://www.w3.org/1999/xlink" x="0px" y="0px"
	 viewBox="0 0 32 32" style="enable-background:new 0 0 32 32;" xml:space="preserve">
<style type="text/css">
	.st0{fill:#3BEEB7;}
	.st1{fill:#4F7FFF;}
</style>
<g>
	<path class="st0" d="M1.52,28.74l9.39-25.49h2.29L3.77,28.74H1.52z"/>
	<path class="st0" d="M8.99,28.74l9.39-25.49h2.29l-9.42,25.49H8.99z"/>
	<path class="st1" d="M18.66,25.51c0-1.3,0.84-2.22,2.02-2.22c1.18,0,1.99,0.91,1.99,2.22c0,1.27-0.77,2.22-2.02,2.22
		C19.47,27.72,18.66,26.78,18.66,25.51z"/>
	<path class="st1" d="M26.48,25.51c0-1.3,0.84-2.22,2.02-2.22c1.18,0,1.98,0.91,1.98,2.22c0,1.27-0.77,2.22-2.02,2.22
		C27.28,27.72,26.48,26.78,26.48,25.51z"/>
</g>
</svg>
